<svg xmlns="http://www.w3.org/2000/svg" xmlns:xlink="http://www.w3.org/1999/xlink" version="1.1" x="0px" y="0px" viewBox="0 0 100 100" enable-background="new 0 0 100 100" xml:space="preserve"><path d="M11.973,90.947c0,2.231,1.817,4.054,4.053,4.053c2.237,0,4.053-1.821,4.054-4.053c0-2.906-4.053-7.778-4.053-7.778  S11.973,88.041,11.973,90.947z"/><path d="M84.878,8.15c-4.201-4.199-11.01-4.2-15.21,0l-9.917,9.917l-3.065-3.065c-1.679-1.679-4.403-1.679-6.082,0l-3.042,3.043  c-1.679,1.679-1.679,4.404,0,6.083l4.208,4.206l-32.32,32.321c-2.902,2.901-3.438,7.284-1.614,10.739l-3.709,3.708  c-1.05,1.051-1.049,2.754,0,3.803c1.051,1.051,2.752,1.051,3.802,0l3.706-3.707c1.302,0.692,2.763,1.062,4.28,1.061  c2.44,0,4.736-0.95,6.462-2.676l32.32-32.32l4.205,4.207c1.678,1.679,4.403,1.679,6.083-0.001l3.043-3.041  c1.68-1.68,1.68-4.405,0-6.084l-3.066-3.066l9.919-9.917C89.077,19.158,89.075,12.35,84.878,8.15z M30.855,72.061  c-1.32,1.319-3.076,2.045-4.941,2.046c-1.867-0.001-3.623-0.727-4.944-2.048c-2.726-2.725-2.726-7.159-0.001-9.885l32.317-32.319  l9.887,9.885L30.855,72.061z"/><path d="M22.49,63.695c-1.887,1.886-1.886,4.957,0,6.843c0.914,0.914,2.13,1.416,3.423,1.417c1.293-0.001,2.507-0.503,3.421-1.417  l22.203-22.203H37.848L22.49,63.695z"/></svg>