<svg xmlns="http://www.w3.org/2000/svg" xmlns:xlink="http://www.w3.org/1999/xlink" version="1.1" x="0px" y="0px" viewBox="0 0 100 100" enable-background="new 0 0 100 100" xml:space="preserve"><path d="M95,72.5v-55c0-1.4-1.1-2.5-2.5-2.5h-85C6.1,15,5,16.1,5,17.5v55C5,73.9,6.1,75,7.5,75h35c1.4,0,2.5,1.1,2.5,2.5l0,0  c0,1.4-1.1,2.5-2.5,2.5H27.6c-1.4,0-2.5,1.1-2.5,2.5v0c0,1.4,1.1,2.5,2.5,2.5h44.9c1.4,0,2.5-1.1,2.5-2.5v0c0-1.4-1.1-2.5-2.5-2.5  h-15c-1.4,0-2.5-1.1-2.5-2.5l0,0c0-1.4,1.1-2.5,2.5-2.5h35C93.9,75,95,73.9,95,72.5z M12.5,20h75c1.4,0,2.5,1.1,2.5,2.5v45  c0,1.4-1.1,2.5-2.5,2.5h-75c-1.4,0-2.5-1.1-2.5-2.5v-45C10,21.1,11.1,20,12.5,20z"/></svg>