<svg xmlns="http://www.w3.org/2000/svg" xmlns:xlink="http://www.w3.org/1999/xlink" version="1.1" x="0px" y="0px" viewBox="0 0 90 90" enable-background="new 0 0 90 90" xml:space="preserve"><g><path d="M37.082,54.632c2.856,2.855,7.484,2.855,10.337,0c2.857-2.855,10.259-20.595,10.259-20.595s-17.74,7.399-20.596,10.255   C34.226,47.147,34.226,51.776,37.082,54.632z"/><path d="M73.562,18.902l7.199,5.57l6.52-6.778c0,0-2.723-4.138-7.016-8.266c-4.293-4.13-8.649-6.799-8.649-6.799l-6.52,6.778   l5.986,7.156l-2.647,2.754c-7.056-6.57-16.505-10.599-26.88-10.599c-21.768,0-39.481,17.71-39.481,39.481   c0,21.771,17.713,39.481,39.481,39.481c21.769,0,39.481-17.71,39.481-39.481c0-10.169-3.866-19.451-10.204-26.458L73.562,18.902z    M67.983,73.416l-3.855-3.853c-0.427-0.43-1.122-0.43-1.552,0c-0.427,0.429-0.427,1.122,0,1.552l3.848,3.845   c-6.279,5.84-14.606,9.498-23.773,9.77V77.08c0-0.605-0.491-1.096-1.096-1.096c-0.605,0-1.096,0.49-1.096,1.096v7.649   c-9.169-0.271-17.497-3.93-23.776-9.77l3.847-3.848c0.43-0.429,0.43-1.122,0-1.552c-0.429-0.427-1.123-0.427-1.549,0l-3.856,3.855   C9.166,67.174,5.393,58.839,5.033,49.635h7.885c0.608,0,1.099-0.49,1.099-1.096s-0.491-1.096-1.099-1.096h-7.9   c0.189-9.301,3.863-17.756,9.777-24.112l4.187,4.184c0.213,0.216,0.493,0.322,0.773,0.322c0.28,0,0.563-0.106,0.776-0.322   c0.43-0.427,0.43-1.123,0-1.549l-4.194-4.194c6.319-6.031,14.785-9.823,24.123-10.1v8.138c0,0.605,0.491,1.096,1.096,1.096   c0.605,0,1.096-0.49,1.096-1.096v-8.138c9.338,0.277,17.804,4.069,24.12,10.1l-4.194,4.191c-0.427,0.43-0.427,1.123,0,1.552   c0.216,0.213,0.496,0.32,0.776,0.32c0.282,0,0.563-0.107,0.775-0.32l4.184-4.187c5.914,6.357,9.591,14.814,9.78,24.115h-7.9   c-0.608,0-1.099,0.49-1.099,1.096s0.49,1.096,1.099,1.096h7.882C77.716,58.839,73.94,67.177,67.983,73.416z"/></g></svg>