<svg xmlns="http://www.w3.org/2000/svg" xmlns:xlink="http://www.w3.org/1999/xlink" version="1.1" x="0px" y="0px" viewBox="0 0 100 100" enable-background="new 0 0 100 100" xml:space="preserve"><path d="M24.152,67.419c0,0,16.858-1.746,24.003-24.345c8.891-28.124,30.73-18.478,30.73-18.478s-31.22,19.741,16.597,42.883  L24.152,67.419z"/><path d="M13.877,67.452c0,0,7.535-0.779,10.728-10.88c3.974-12.569,13.734-8.258,13.734-8.258s-13.953,8.823,7.418,19.166  L13.877,67.452z"/><path d="M5,67.464c0,0,4.196-0.434,5.975-6.06c2.213-7.001,7.649-4.6,7.649-4.6s-7.771,4.914,4.131,10.675L5,67.464z"/></svg>