<svg xmlns="http://www.w3.org/2000/svg" xmlns:xlink="http://www.w3.org/1999/xlink" version="1.1" x="0px" y="0px" viewBox="0 0 100 100" enable-background="new 0 0 100 100" xml:space="preserve"><rect x="48.459" y="22.526" width="5.58" height="1.548"/><rect x="48.459" y="36.892" width="5.58" height="1.555"/><rect x="48.459" y="51.264" width="5.58" height="1.552"/><path d="M61.799,64.792V15.544C61.799,9.722,57.076,5,51.249,5c-5.818,0-10.99,4.723-10.99,10.544v49.615  c-3.641,3.11-5.961,7.728-5.961,12.893c0,9.36,7.588,16.948,16.952,16.948c9.365,0,16.953-7.588,16.953-16.948  C68.202,72.679,65.697,67.898,61.799,64.792z M51.249,89.307c-6.203,0-11.235-5.032-11.235-11.238c0-4.164,2.292-7.758,5.655-9.7  V17.555c0-3.038,2.545-5.499,5.58-5.499s5.589,2.46,5.589,5.499v50.816c3.361,1.943,5.648,5.536,5.648,9.697  C62.486,84.274,57.463,89.307,51.249,89.307z"/><path d="M54.254,70.692V59.746h-6.006v10.946c-2.911,1.188-4.968,4.038-4.968,7.376c0,4.403,3.569,7.973,7.969,7.973  c4.409,0,7.97-3.569,7.97-7.973C59.219,74.73,57.168,71.88,54.254,70.692z"/></svg>