<svg xmlns="http://www.w3.org/2000/svg" xmlns:xlink="http://www.w3.org/1999/xlink" version="1.1" x="0px" y="0px" viewBox="0 0 90 90" enable-background="new 0 0 90 90" xml:space="preserve"><path d="M66.008,29.86c-1.301,0-2.588,0.227-3.818,0.62c-0.891-9.107-8.588-16.248-17.924-16.248c-8.7,0-16.18,6.374-17.717,14.789  c-0.536-0.065-1.077-0.1-1.618-0.1c-7.434,0-13.481,6.048-13.481,13.481v3.984c0,2.177,1.771,3.948,3.947,3.948h20.374l-6.702,8.546  c-0.36,0.459-0.427,1.084-0.171,1.609c0.255,0.524,0.788,0.858,1.372,0.858h6.011l-9.105,11.968  c-0.451,0.593-0.408,1.426,0.103,1.969c0.298,0.316,0.703,0.481,1.112,0.481c0.293,0,0.588-0.084,0.847-0.257l25.93-17.295  c0.559-0.373,0.809-1.068,0.613-1.712s-0.787-1.084-1.461-1.084h-5.953l3.988-5.084h22.25c2.176,0,3.947-1.771,3.947-3.948v-3.984  C78.551,35.487,72.924,29.86,66.008,29.86z M75.498,46.388c0,0.494-0.4,0.896-0.895,0.896H15.396c-0.494,0-0.896-0.401-0.896-0.896  v-3.984c0-5.751,4.679-10.43,10.43-10.43c0.857,0,1.713,0.105,2.543,0.314c2.282,0.572,4.327,1.923,5.761,3.806  c0.51,0.67,1.469,0.799,2.139,0.29c0.671-0.511,0.8-1.468,0.29-2.139c-1.572-2.064-3.718-3.627-6.135-4.507  c1.206-7.072,7.453-12.453,14.737-12.453c8.25,0,14.961,6.712,14.961,14.961v0.32c0,1.118,0,4.757,0,4.913v0.325  c0,0.843,0.684,1.526,1.525,1.526c0.844,0,1.527-0.683,1.527-1.526v-0.315c0-0.105,0-2.283,0-3.8  c1.174-0.502,2.441-0.777,3.729-0.777c5.232,0,9.49,4.258,9.49,9.492V46.388z"/></svg>